<svg xmlns="http://www.w3.org/2000/svg" viewBox="0 0 240 240" role="img" aria-label="Illustrated avatar of Ryan Reynolds"><title>Ryan Reynolds</title><defs><linearGradient id="bg-ryan-reynolds" x1="0" y1="0" x2="1" y2="1"><stop offset="0" stop-color="#12C2B9"/><stop offset="1" stop-color="#8C4DFF"/></linearGradient><clipPath id="clip-ryan-reynolds"><circle cx="120" cy="120" r="120"/></clipPath></defs><g clip-path="url(#clip-ryan-reynolds)"><circle cx="120" cy="120" r="120" fill="url(#bg-ryan-reynolds)"/><circle cx="40" cy="56" r="4" fill="#FFFFFF" opacity="0.5"/><circle cx="196" cy="42" r="3" fill="#FFFFFF" opacity="0.45"/><circle cx="208" cy="148" r="4.5" fill="#FFFFFF" opacity="0.3"/><circle cx="26" cy="148" r="3" fill="#FFFFFF" opacity="0.38"/><circle cx="168" cy="24" r="3.5" fill="#FFFFFF" opacity="0.5"/><circle cx="66" cy="26" r="2.5" fill="#FFFFFF" opacity="0.4"/><rect x="106" y="132" width="28" height="44" rx="9" fill="#F1BE93"/><path d="M40,246 C40,198 75,168 120,168 C165,168 200,198 200,246 L200,252 L40,252 Z" fill="#55617A"/><path d="M99,171 C106,179 134,179 141,171 L124,206 C121,211 119,211 116,206 Z" fill="#FFFFFF"/><path d="M116,174 L120,206 L124,174 Z" fill="#241239"/><rect x="114.5" y="170" width="11" height="7" rx="2.5" fill="#241239"/><ellipse cx="120" cy="112" rx="46" ry="50" fill="#F1BE93"/><circle cx="73" cy="115" r="9" fill="#F1BE93"/><circle cx="167" cy="115" r="9" fill="#F1BE93"/><ellipse cx="93" cy="128" rx="7.5" ry="4.5" fill="#FF7BAC" opacity="0.3"/><ellipse cx="147" cy="128" rx="7.5" ry="4.5" fill="#FF7BAC" opacity="0.3"/><path d="M90,100 Q100,92 112,96" stroke="#5A3D22" stroke-width="5" stroke-linecap="round" fill="none"/><path d="M128,92 Q140,84 151,90" stroke="#5A3D22" stroke-width="5" stroke-linecap="round" fill="none"/><circle cx="102" cy="114" r="5.2" fill="#2B1B2E"/><circle cx="138" cy="114" r="5.2" fill="#2B1B2E"/><circle cx="100.2" cy="112.2" r="1.7" fill="#FFFFFF"/><circle cx="136.2" cy="112.2" r="1.7" fill="#FFFFFF"/><path d="M103,133 Q120,149 137,133" stroke="#2B1B2E" stroke-width="5.5" stroke-linecap="round" fill="none"/><path d="M75,108 C71,68 86,44 116,47 C136,36 166,52 166,102 C164,76 150,62 122,61 C96,61 80,84 75,108 Z" fill="#6E4B2A"/></g></svg>